<mxfile host="app.diagrams.net" agent="Mozilla/5.0 (Windows NT 10.0; Win64; x64) AppleWebKit/537.36 (KHTML, like Gecko) Chrome/131.0.0.0 Safari/537.36 Edg/131.0.0.0" version="24.8.4">
  <diagram name="Страница — 1" id="IeNJgb-7kAVta1X1Qgv2">
    <mxGraphModel dx="1282" dy="567" grid="1" gridSize="10" guides="1" tooltips="1" connect="1" arrows="1" fold="1" page="1" pageScale="1" pageWidth="827" pageHeight="1169" math="0" shadow="0">
      <root>
        <mxCell id="0" />
        <mxCell id="1" parent="0" />
        <mxCell id="OPfNs2YMukVocSEaLeKv-5" style="edgeStyle=orthogonalEdgeStyle;rounded=0;orthogonalLoop=1;jettySize=auto;html=1;exitX=1;exitY=0.5;exitDx=0;exitDy=0;" edge="1" parent="1" source="OPfNs2YMukVocSEaLeKv-1" target="OPfNs2YMukVocSEaLeKv-17">
          <mxGeometry relative="1" as="geometry" />
        </mxCell>
        <mxCell id="OPfNs2YMukVocSEaLeKv-1" value="Буфер аудиоданных" style="rounded=0;whiteSpace=wrap;html=1;" vertex="1" parent="1">
          <mxGeometry x="310" y="200" width="120" height="60" as="geometry" />
        </mxCell>
        <mxCell id="OPfNs2YMukVocSEaLeKv-3" style="edgeStyle=orthogonalEdgeStyle;rounded=0;orthogonalLoop=1;jettySize=auto;html=1;exitX=1;exitY=0.5;exitDx=0;exitDy=0;entryX=0;entryY=0.5;entryDx=0;entryDy=0;" edge="1" parent="1" source="OPfNs2YMukVocSEaLeKv-2" target="OPfNs2YMukVocSEaLeKv-1">
          <mxGeometry relative="1" as="geometry" />
        </mxCell>
        <mxCell id="OPfNs2YMukVocSEaLeKv-14" value="Чтение содержимого памяти" style="edgeLabel;html=1;align=center;verticalAlign=middle;resizable=0;points=[];" vertex="1" connectable="0" parent="OPfNs2YMukVocSEaLeKv-3">
          <mxGeometry x="-0.1" relative="1" as="geometry">
            <mxPoint x="14" y="-40" as="offset" />
          </mxGeometry>
        </mxCell>
        <mxCell id="OPfNs2YMukVocSEaLeKv-2" value="SPI NAND W25Q" style="rounded=0;whiteSpace=wrap;html=1;" vertex="1" parent="1">
          <mxGeometry x="110" y="200" width="120" height="60" as="geometry" />
        </mxCell>
        <mxCell id="OPfNs2YMukVocSEaLeKv-6" style="edgeStyle=orthogonalEdgeStyle;rounded=0;orthogonalLoop=1;jettySize=auto;html=1;exitX=1;exitY=0.5;exitDx=0;exitDy=0;entryX=0;entryY=0.5;entryDx=0;entryDy=0;" edge="1" parent="1" source="OPfNs2YMukVocSEaLeKv-4" target="OPfNs2YMukVocSEaLeKv-2">
          <mxGeometry relative="1" as="geometry">
            <Array as="points">
              <mxPoint x="640" y="230" />
              <mxPoint x="640" y="120" />
              <mxPoint x="90" y="120" />
              <mxPoint x="90" y="230" />
            </Array>
          </mxGeometry>
        </mxCell>
        <mxCell id="OPfNs2YMukVocSEaLeKv-7" value="Буфер полупуст" style="edgeLabel;html=1;align=center;verticalAlign=middle;resizable=0;points=[];" vertex="1" connectable="0" parent="OPfNs2YMukVocSEaLeKv-6">
          <mxGeometry x="0.0054" y="2" relative="1" as="geometry">
            <mxPoint y="-2" as="offset" />
          </mxGeometry>
        </mxCell>
        <mxCell id="OPfNs2YMukVocSEaLeKv-4" value="ШИМ таймера динамика" style="rounded=0;whiteSpace=wrap;html=1;" vertex="1" parent="1">
          <mxGeometry x="500" y="200" width="120" height="60" as="geometry" />
        </mxCell>
        <mxCell id="OPfNs2YMukVocSEaLeKv-11" style="edgeStyle=orthogonalEdgeStyle;rounded=0;orthogonalLoop=1;jettySize=auto;html=1;exitX=1;exitY=0.5;exitDx=0;exitDy=0;entryX=0;entryY=0.5;entryDx=0;entryDy=0;" edge="1" parent="1" source="OPfNs2YMukVocSEaLeKv-8" target="OPfNs2YMukVocSEaLeKv-10">
          <mxGeometry relative="1" as="geometry" />
        </mxCell>
        <mxCell id="OPfNs2YMukVocSEaLeKv-12" value="Направление" style="edgeLabel;html=1;align=center;verticalAlign=middle;resizable=0;points=[];" vertex="1" connectable="0" parent="OPfNs2YMukVocSEaLeKv-11">
          <mxGeometry x="-0.1067" relative="1" as="geometry">
            <mxPoint as="offset" />
          </mxGeometry>
        </mxCell>
        <mxCell id="OPfNs2YMukVocSEaLeKv-8" value="Генератор случайных чисел (программный)" style="rounded=0;whiteSpace=wrap;html=1;" vertex="1" parent="1">
          <mxGeometry x="310" y="330" width="120" height="60" as="geometry" />
        </mxCell>
        <mxCell id="OPfNs2YMukVocSEaLeKv-9" value="ШИМ таймера для управления сервоприводом управления наклона головы" style="rounded=0;whiteSpace=wrap;html=1;" vertex="1" parent="1">
          <mxGeometry x="110" y="320" width="120" height="80" as="geometry" />
        </mxCell>
        <mxCell id="OPfNs2YMukVocSEaLeKv-10" value="ШИМ таймера для управления сервоприводов управления направлением движения" style="rounded=0;whiteSpace=wrap;html=1;" vertex="1" parent="1">
          <mxGeometry x="530" y="315" width="120" height="90" as="geometry" />
        </mxCell>
        <mxCell id="OPfNs2YMukVocSEaLeKv-15" style="edgeStyle=orthogonalEdgeStyle;rounded=0;orthogonalLoop=1;jettySize=auto;html=1;exitX=0;exitY=0.5;exitDx=0;exitDy=0;" edge="1" parent="1" source="OPfNs2YMukVocSEaLeKv-13" target="OPfNs2YMukVocSEaLeKv-2">
          <mxGeometry relative="1" as="geometry">
            <Array as="points">
              <mxPoint x="90" y="490" />
              <mxPoint x="90" y="300" />
              <mxPoint x="170" y="300" />
            </Array>
          </mxGeometry>
        </mxCell>
        <mxCell id="OPfNs2YMukVocSEaLeKv-16" value="Перезапись трека" style="edgeLabel;html=1;align=center;verticalAlign=middle;resizable=0;points=[];" vertex="1" connectable="0" parent="OPfNs2YMukVocSEaLeKv-15">
          <mxGeometry x="-0.4291" y="2" relative="1" as="geometry">
            <mxPoint as="offset" />
          </mxGeometry>
        </mxCell>
        <mxCell id="OPfNs2YMukVocSEaLeKv-13" value="UART TTL" style="rounded=0;whiteSpace=wrap;html=1;" vertex="1" parent="1">
          <mxGeometry x="110" y="460" width="120" height="60" as="geometry" />
        </mxCell>
        <mxCell id="OPfNs2YMukVocSEaLeKv-18" style="edgeStyle=orthogonalEdgeStyle;rounded=0;orthogonalLoop=1;jettySize=auto;html=1;exitX=1;exitY=0.5;exitDx=0;exitDy=0;entryX=0.5;entryY=0;entryDx=0;entryDy=0;" edge="1" parent="1" source="OPfNs2YMukVocSEaLeKv-17" target="OPfNs2YMukVocSEaLeKv-4">
          <mxGeometry relative="1" as="geometry" />
        </mxCell>
        <mxCell id="OPfNs2YMukVocSEaLeKv-17" value="Таймер аудиочастоты" style="rounded=0;whiteSpace=wrap;html=1;" vertex="1" parent="1">
          <mxGeometry x="410" y="130" width="120" height="60" as="geometry" />
        </mxCell>
      </root>
    </mxGraphModel>
  </diagram>
</mxfile>
